<?xml version="1.0"?>
<svg xmlns="http://www.w3.org/2000/svg" xmlns:xlink="http://www.w3.org/1999/xlink" xmlns:svgjs="http://svgjs.com/svgjs" version="1.1" width="512" height="512" x="0" y="0" viewBox="0 0 50 50" style="enable-background:new 0 0 512 512" xml:space="preserve" class=""><g><g xmlns="http://www.w3.org/2000/svg"><path d="m22.469 19.815c-.39-.39-.93-.63-1.53-.63h-3.25v4.34h3.25c1.908 0 2.907-2.298 1.53-3.71z" fill="#ffffff" data-original="#000000" class=""/><path d="m17.689 25.625v5.13h3.84c2.3 0 3.428-2.797 1.81-4.38-1-1-1.884-.75-5.65-.75z" fill="#ffffff" data-original="#000000" class=""/><path d="m39.069 25.005c0-10.52-8.52-19.04-19.03-19.04s-19.04 8.52-19.04 19.04c0 10.51 8.53 19.03 19.04 19.03s19.03-8.52 19.03-19.03zm-11.81 6.75c-.85.86-2.04 1.39-3.35 1.39h-2.56v3.17h-2.18v-3.17h-1.57v3.17h-2.18v-3.17h-4v-2.17h2.43v-11.94h-2.43v-2.18h4v-3.17h2.18v3.17h1.57v-3.17h2.18v3.17h2.52c1.88 0 3.4 1.52 3.4 3.4 0 .94-.38 1.79-.99 2.41-.61.6-1.45.98-2.37.99 2.62 0 4.74 2.13 4.74 4.75 0 1.31-.53 2.5-1.39 3.35z" fill="#ffffff" data-original="#000000" class=""/><path d="m29.021 5.988c16.037 7.591 16.039 30.438 0 38.03 11.62.375 19.98-8.686 19.98-19.02 0-10.31-8.332-19.386-19.98-19.01z" fill="#ffffff" data-original="#000000" class=""/></g></g></svg>
