<?xml version="1.0"?>
<svg xmlns="http://www.w3.org/2000/svg" xmlns:xlink="http://www.w3.org/1999/xlink" xmlns:svgjs="http://svgjs.com/svgjs" version="1.1" width="512" height="512" x="0" y="0" viewBox="0 0 480 480" style="enable-background:new 0 0 512 512" xml:space="preserve" class=""><g>
<linearGradient xmlns="http://www.w3.org/2000/svg" id="SVGID_1_" gradientUnits="userSpaceOnUse" x1="-26.875" y1="557.839" x2="-26.875" y2="622.319" gradientTransform="matrix(8 0 0 -8 455 4941)"><stop stop-opacity="1" stop-color="#755b89" offset="0"/><stop stop-opacity="1" stop-color="#521e58" offset="1"/></linearGradient>
<path xmlns="http://www.w3.org/2000/svg" style="fill:url(#SVGID_1_);" d="M240,232c-48.601,0-88-39.399-88-88s39.399-88,88-88s88,39.399,88,88h16  c-0.087-54.283-41.881-99.382-96-103.592V0h-16v40.408c-57.239,4.445-100.037,54.449-95.592,111.688  C140.609,206.204,185.729,247.975,240,248c48.601,0,88,39.399,88,88s-39.399,88-88,88s-88-39.399-88-88h-16  c0.087,54.283,41.881,99.382,96,103.592V480h16v-40.408c57.239-4.445,100.037-54.449,95.592-111.688  C339.391,273.796,294.271,232.025,240,232L240,232z" fill=""/>
<g xmlns="http://www.w3.org/2000/svg">
</g>
<g xmlns="http://www.w3.org/2000/svg">
</g>
<g xmlns="http://www.w3.org/2000/svg">
</g>
<g xmlns="http://www.w3.org/2000/svg">
</g>
<g xmlns="http://www.w3.org/2000/svg">
</g>
<g xmlns="http://www.w3.org/2000/svg">
</g>
<g xmlns="http://www.w3.org/2000/svg">
</g>
<g xmlns="http://www.w3.org/2000/svg">
</g>
<g xmlns="http://www.w3.org/2000/svg">
</g>
<g xmlns="http://www.w3.org/2000/svg">
</g>
<g xmlns="http://www.w3.org/2000/svg">
</g>
<g xmlns="http://www.w3.org/2000/svg">
</g>
<g xmlns="http://www.w3.org/2000/svg">
</g>
<g xmlns="http://www.w3.org/2000/svg">
</g>
<g xmlns="http://www.w3.org/2000/svg">
</g>
</g></svg>
