<svg xmlns="http://www.w3.org/2000/svg" version="1.1" width="512" height="512" x="0" y="0" viewBox="0 0 512 512" style="enable-background:new 0 0 512 512" xml:space="preserve" class=""><g><linearGradient xmlns="http://www.w3.org/2000/svg" id="SVGID_1_" gradientUnits="userSpaceOnUse" x1="256" x2="256" y1="512" y2="0"><stop stop-opacity="1" stop-color="#0029ff" offset="0"/><stop stop-opacity="1" stop-color="#00ffc5" offset="1"/></linearGradient><path xmlns="http://www.w3.org/2000/svg" clip-rule="evenodd" d="m256 0c141.385 0 256 114.615 256 256s-114.615 256-256 256-256-114.615-256-256 114.615-256 256-256zm88.897 335.497c44.607 0 81.103-36.496 81.103-81.104 0-45.967-37.18-81.103-82.709-81.103.001-48.009-39.281-87.29-87.291-87.29s-87.291 39.281-87.291 87.291c-45.498 0-82.708 35.106-82.708 81.103 0 44.606 36.496 81.103 81.103 81.103h77.563 22.667zm-100.23 0v51.811l-30.111-30.11c-4.425-4.426-11.601-4.426-16.026 0-4.425 4.425-4.425 11.6 0 16.026l49.457 49.457c4.425 4.425 11.601 4.425 16.026 0l49.457-49.457c4.425-4.425 4.425-11.601 0-16.026-4.425-4.426-11.601-4.426-16.026 0l-30.111 30.11v-51.811-118.395c0-6.259-5.074-11.333-11.333-11.333-6.26 0-11.334 5.074-11.334 11.333v118.395z" fill="url(#SVGID_1_)" fill-rule="evenodd" data-original="url(#SVGID_1_)"/></g></svg>
