<svg xmlns="http://www.w3.org/2000/svg" version="1.1" width="512" height="512" x="0" y="0" viewBox="0 0 512 512" style="enable-background:new 0 0 512 512" xml:space="preserve" class=""><g transform="matrix(0.9199999999999999,0,0,0.9199999999999999,20.479998474121032,20.480000000000018)"><linearGradient xmlns="http://www.w3.org/2000/svg" id="SVGID_1_" gradientUnits="userSpaceOnUse" x1="256" x2="256" y1="0" y2="512"><stop stop-opacity="1" stop-color="#79618e" offset="0"/><stop stop-opacity="1" stop-color="#440645" offset="1"/></linearGradient><path xmlns="http://www.w3.org/2000/svg" d="m377.051 315.982h-240v-39.982h240zm0-119.982h-240v39.982h240zm134.898 256v-392c0-33.084-26.916-60-60-60h-392c-33.084 0-59.898 26.916-59.898 60v392c0 33.084 26.814 60 59.898 60h392c33.084 0 60-26.916 60-60zm-60-412c11.028 0 20.102 8.972 20.102 20v392c0 11.028-9.074 20-20.102 20h-392c-11.028 0-20-8.972-20-20v-392c0-11.028 8.972-20 20-20z" fill="url(#SVGID_1_)" data-original="url(#SVGID_1_)"/></g></svg>
