<?xml version="1.0"?>
<svg xmlns="http://www.w3.org/2000/svg" xmlns:xlink="http://www.w3.org/1999/xlink" xmlns:svgjs="http://svgjs.com/svgjs" version="1.1" width="512" height="512" x="0" y="0" viewBox="0 0 512 512" style="enable-background:new 0 0 512 512" xml:space="preserve" class=""><g><linearGradient xmlns="http://www.w3.org/2000/svg" id="SVGID_1_" gradientUnits="userSpaceOnUse" x1="356.48" x2="155.52" y1="428.766" y2="80.694"><stop stop-opacity="1" stop-color="#725384" offset="0"/><stop stop-opacity="1" stop-color="#725384" offset="0.04716641"/><stop stop-opacity="1" stop-color="#725384" offset="0.30115830115830117"/><stop stop-opacity="1" stop-color="#531f59" offset="0.5232"/><stop stop-opacity="1" stop-color="#531f59" offset="0.7239"/><stop stop-opacity="1" stop-color="#531f59" offset="0.8897"/><stop stop-opacity="1" stop-color="#531f59" offset="1"/></linearGradient><g xmlns="http://www.w3.org/2000/svg" id="Layer_2"><g><g fill="url(#SVGID_1_)"><path d="m317.7 296.6c-11.6 0-21 9.4-21 21s9.4 21 21 21 21-9.4 21-21c0-11.5-9.4-21-21-21z" fill=""/><path d="m194.3 217.9c11.6 0 21-9.4 21-21s-9.4-21-21-21-21 9.4-21 21 9.4 21 21 21z" fill=""/><path d="m256 53.7c-110.8 0-201 90.2-201 201s90.2 201 201 201 201-90.2 201-201-90.2-201-201-201zm61.7 314.9c-28.1 0-51-22.9-51-51s22.9-51 51-51 51 22.9 51 51c0 28.2-22.9 51-51 51zm-123.4-222.7c28.1 0 51 22.9 51 51s-22.9 51-51 51-51-22.9-51-51 22.9-51 51-51zm2.8 211.1c-8.3 0-15-6.7-15-15 0-3 .9-5.9 2.6-8.4l117.8-174.5c4.6-6.9 14-8.7 20.8-4 6.9 4.6 8.7 14 4 20.8l-117.8 174.5c-2.8 4.1-7.4 6.6-12.4 6.6z" fill=""/></g></g></g></g></svg>
