<svg xmlns="http://www.w3.org/2000/svg" version="1.1" width="512" height="512" x="0" y="0" viewBox="0 0 512 512" style="enable-background:new 0 0 512 512" xml:space="preserve"><g><linearGradient xmlns="http://www.w3.org/2000/svg" id="GradientFill_1" gradientUnits="userSpaceOnUse" x1="256" x2="256" y1="512.011" y2="-.011"><stop stop-opacity="1" stop-color="#440645" offset="0"/><stop stop-opacity="1" stop-color="#79618e" offset="1"/></linearGradient><path xmlns="http://www.w3.org/2000/svg" d="m471.98 324.007h-335.434l39.723-39.724a40 40 0 0 0 -56.569-56.566l-107.987 107.99a40.007 40.007 0 0 0 0 56.567l107.987 107.99a40 40 0 0 0 56.569-56.564l-39.723-39.676h335.434a40.007 40.007 0 0 0 0-80.014zm28.307-204.28a40.006 40.006 0 0 1 0 56.566l-107.987 107.99a40 40 0 0 1 -56.566-56.566l39.676-39.724h-335.39a40.007 40.007 0 1 1 0-80.013h335.387l-39.676-39.68a40 40 0 1 1 56.569-56.564z" fill="url(#GradientFill_1)" fill-rule="evenodd" data-original="url(#GradientFill_1)"/></g></svg>
