<svg height="512" viewBox="0 0 512 512" width="512" xmlns="http://www.w3.org/2000/svg" xmlns:xlink="http://www.w3.org/1999/xlink"><linearGradient id="Degradado_sin_nombre_21" gradientUnits="userSpaceOnUse" x1="29.34" x2="490.997" y1="256" y2="256"><stop offset="0" stop-color="#6fc1f5"/><stop offset=".347" stop-color="#51b4f3"/><stop offset=".7648" stop-color="#32a7f1"/><stop offset="1" stop-color="#27a2f0"/></linearGradient><radialGradient id="radial-gradient" cx="269.642" cy="326" gradientTransform="matrix(.765 -.644 .489 .58 -95.886 310.501)" gradientUnits="userSpaceOnUse" r="270.534"><stop offset="0"/><stop offset="1" stop-color="#fff" stop-opacity="0"/></radialGradient><radialGradient id="radial-gradient-2" cx="215.775" cy="150.541" fx="266.549" fy="298.716" gradientUnits="userSpaceOnUse" r="219.386"><stop offset="0" stop-color="#fff"/><stop offset=".0736" stop-color="#fff" stop-opacity=".824"/><stop offset=".1652" stop-color="#fff" stop-opacity=".633"/><stop offset=".262" stop-color="#fff" stop-opacity=".463"/><stop offset=".362" stop-color="#fff" stop-opacity=".32"/><stop offset=".4663" stop-color="#fff" stop-opacity=".203"/><stop offset=".5761" stop-color="#fff" stop-opacity=".113"/><stop offset=".6941" stop-color="#fff" stop-opacity=".05"/><stop offset=".8259" stop-color="#fff" stop-opacity=".012"/><stop offset="1" stop-color="#fff" stop-opacity="0"/></radialGradient><g isolation="isolate"><g id="Layer_1" data-name="Layer 1"><circle cx="260.169" cy="256" fill="url(#Degradado_sin_nombre_21)" r="230.829"/><path d="m396.148 147.56a127.5 127.5 0 0 1 -37.3459 14.0827c-10.5341-11.2671-25.8557-17.8387-43.0921-17.8387-32.5584 0-59.3712 25.3492-59.3712 57.272 0 4.6939.9571 8.4494 1.9152 13.1442-48.8381-2.8171-92.8867-25.35-121.6147-59.15a56.4924 56.4924 0 0 0 -7.6608 28.1663c0 19.7159 10.5331 37.5551 25.8547 46.9439a52.2374 52.2374 0 0 1 -26.8132-7.5104v.9394c0 27.2269 20.11 50.6993 46.9229 55.3932a85.3654 85.3654 0 0 1 -15.3216 1.8778 47.5454 47.5454 0 0 1 -11.4912-.9384 58.9058 58.9058 0 0 0 55.5408 39.4328 123.001 123.001 0 0 1 -72.7776 24.4108 73.8618 73.8618 0 0 1 -14.3645-.9394 172.8426 172.8426 0 0 0 90.0144 25.35c108.2083 0 167.58-86.3767 167.58-161.4868v-7.512a143.9277 143.9277 0 0 0 29.6861-29.1047c-10.5341 4.6949-22.0253 7.5111-33.5155 9.3888 11.49-7.511 21.0662-17.8391 25.8547-31.9218z" fill="#fff" fill-rule="evenodd"/><path d="m472.4294 165.1718a230.513 230.513 0 0 1 2.6011 34.5219c0 129.4458-107.6157 234.3828-240.3662 234.3828-75.187 0-142.3008-33.67-186.3769-86.3813 35.4755 81.86 116.9838 139.1333 211.8813 139.1333 127.4829 0 230.8286-103.3452 230.8286-230.8286a230.064 230.064 0 0 0 -18.5679-90.8281z" fill="url(#radial-gradient)" mix-blend-mode="multiply"/><path d="m44.263 220.7355c21.96 56.25 116.2212 71.9993 210.5376 35.1773s158.5388-114.7754 131.0114-168.5215c-16.263-31.7537-69.4149-60.3147-132.1229-62.1182h-.3424c-100.9337 2.9301-185.6031 70.6641-213.8983 163.0386a77.3986 77.3986 0 0 0 4.8146 32.4238z" fill="url(#radial-gradient-2)"/></g></g></svg>