<svg xmlns="http://www.w3.org/2000/svg" version="1.1" width="512" height="512" x="0" y="0" viewBox="0 0 512 512" style="enable-background:new 0 0 512 512" xml:space="preserve" class=""><g><g xmlns="http://www.w3.org/2000/svg" fill="#5153ff"><path d="m400 216a23.928 23.928 0 0 1 -16.971-7.029l-127.029-127.03-127.029 127.03a24 24 0 0 1 -33.942-33.942l144-144a24 24 0 0 1 33.942 0l144 144a24 24 0 0 1 -16.971 40.971z" fill="#79618e" data-original="#5153ff" class=""/><path d="m256 488a23.928 23.928 0 0 1 -16.971-7.029l-144-144a24 24 0 0 1 33.942-33.942l127.029 127.03 127.029-127.03a24 24 0 0 1 33.942 33.942l-144 144a23.928 23.928 0 0 1 -16.971 7.029z" fill="#79618e" data-original="#5153ff" class=""/></g></g></svg>
